<svg viewBox="0 0 25 25" fill="none" xmlns="http://www.w3.org/2000/svg">
<g clip-path="url(#clip0_2382_1000)">
<path fill-rule="evenodd" clip-rule="evenodd" d="M16.3364 0.784837C16.7269 0.394312 17.36 0.394312 17.7506 0.784837L21.7506 4.78484C22.1411 5.17536 22.1411 5.80853 21.7506 6.19905L17.7506 10.199C17.36 10.5896 16.7269 10.5896 16.3364 10.199C15.9458 9.80853 15.9458 9.17536 16.3364 8.78484L19.6292 5.49194L16.3364 2.19905C15.9458 1.80853 15.9458 1.17536 16.3364 0.784837Z"/>
<path fill-rule="evenodd" clip-rule="evenodd" d="M7.04346 6.49194C6.24781 6.49194 5.48475 6.80801 4.92214 7.37062C4.35953 7.93323 4.04346 8.69629 4.04346 9.49194V11.4919C4.04346 12.0442 3.59574 12.4919 3.04346 12.4919C2.49117 12.4919 2.04346 12.0442 2.04346 11.4919V9.49194C2.04346 8.16586 2.57024 6.89409 3.50792 5.95641C4.4456 5.01873 5.71737 4.49194 7.04346 4.49194H21.0435C21.5957 4.49194 22.0435 4.93966 22.0435 5.49194C22.0435 6.04423 21.5957 6.49194 21.0435 6.49194H7.04346Z"/>
<path fill-rule="evenodd" clip-rule="evenodd" d="M7.75056 14.7848C8.14109 15.1754 8.14109 15.8085 7.75056 16.1991L4.45767 19.4919L7.75056 22.7848C8.14109 23.1754 8.14109 23.8085 7.75056 24.199C7.36004 24.5896 6.72687 24.5896 6.33635 24.199L2.33635 20.199C1.94583 19.8085 1.94583 19.1754 2.33635 18.7848L6.33635 14.7848C6.72687 14.3943 7.36004 14.3943 7.75056 14.7848Z"/>
<path fill-rule="evenodd" clip-rule="evenodd" d="M21.0435 12.4919C21.5957 12.4919 22.0435 12.9397 22.0435 13.4919V15.4919C22.0435 16.818 21.5167 18.0898 20.579 19.0275C19.6413 19.9652 18.3695 20.4919 17.0435 20.4919H3.04346C2.49117 20.4919 2.04346 20.0442 2.04346 19.4919C2.04346 18.9397 2.49117 18.4919 3.04346 18.4919H17.0435C17.8391 18.4919 18.6022 18.1759 19.1648 17.6133C19.7274 17.0507 20.0435 16.2876 20.0435 15.4919V13.4919C20.0435 12.9397 20.4912 12.4919 21.0435 12.4919Z"/>
</g>
<defs>
<clipPath id="clip0_2382_1000">
<rect width="24" height="24" fill="white" transform="translate(0.043457 0.491943)"/>
</clipPath>
</defs>
</svg>
